<?xml version="1.0" encoding="UTF-8"?>
<svg width="36px" height="36px" viewBox="0 0 36 36" version="1.1" xmlns="http://www.w3.org/2000/svg" xmlns:xlink="http://www.w3.org/1999/xlink">
    <title>Graduation Cap Copy</title>
    <g id="Graduation-Cap-Copy" stroke="none" stroke-width="1" fill="none" fill-rule="evenodd">
        <g id="portfolio" transform="translate(2.000000, 0.000000)" fill-rule="nonzero">
            <path d="M24.046875,18.3055781 C24.0048984,18.1651641 23.9409844,18.0414844 23.8550625,17.9346094 C23.7690703,17.8277344 23.6621953,17.7418125 23.5343672,17.6767734 C23.4064688,17.611875 23.2566328,17.57925 23.0847891,17.57925 C22.9085859,17.57925 22.7567109,17.6128594 22.6288125,17.6798672 C22.5009141,17.7469453 22.3950234,17.8361719 22.3112109,17.9471953 C22.2273281,18.0582891 22.1655234,18.1840781 22.1257969,18.3244219 C22.0858594,18.4649062 22.0659609,18.6085547 22.0659609,18.7552266 C22.0659609,18.9061172 22.0868438,19.0518047 22.1288906,19.1922187 C22.1706563,19.3327031 22.2335859,19.4572969 22.3174688,19.5662812 C22.4013516,19.6754062 22.5071016,19.7633672 22.6350703,19.8305156 C22.7628984,19.8975937 22.9148438,19.9311328 23.0909766,19.9311328 C23.2671094,19.9311328 23.4201094,19.8965391 23.5500469,19.8273516 C23.6799141,19.7582344 23.7857344,19.6681641 23.8676484,19.5570703 C23.9493516,19.4460469 24.0100312,19.3192031 24.0499688,19.1765391 C24.0896953,19.0340156 24.1097344,18.8894531 24.1097344,18.7426406 C24.1097344,18.5916797 24.0886406,18.4461328 24.046875,18.3055781 Z" id="Path" fill="#0064B0"></path>
            <path d="M17.8341328,12.1978828 C17.7586172,12.1161797 17.6832422,12.0751875 17.6077266,12.0751875 L16.8657188,12.0751875 L16.8657188,13.0310859 L17.6390859,13.0310859 C17.7146016,13.0310859 17.7847734,12.9891797 17.8498125,12.9052969 C17.9147109,12.8214844 17.9473359,12.7039922 17.9473359,12.5531719 C17.9473359,12.3981328 17.9096484,12.2797266 17.8341328,12.1978828 Z" id="Path" fill="#0064B0"></path>
            <path d="M13.7156484,12.7953281 C13.6736719,12.6549141 13.6096172,12.5312344 13.5238359,12.4243594 C13.4378438,12.3174844 13.3309688,12.2315625 13.2031406,12.1665234 C13.0752422,12.101625 12.9254063,12.069 12.7535625,12.069 C12.5774297,12.069 12.4255547,12.1026094 12.2976562,12.1696172 C12.1697578,12.2366953 12.0638672,12.3259219 11.9800547,12.4369453 C11.8961719,12.5480391 11.8343672,12.6738281 11.7946406,12.8141719 C11.7547031,12.9546562 11.7348047,13.0983047 11.7348047,13.2449766 C11.7348047,13.3958672 11.7556875,13.5415547 11.7977344,13.6819688 C11.8394297,13.8224531 11.9023594,13.9470469 11.9862422,14.0561016 C12.070125,14.1652266 12.175875,14.2531875 12.3038438,14.3203359 C12.4316719,14.3874141 12.5836172,14.4209531 12.75975,14.4209531 C12.9358828,14.4209531 13.0888828,14.3863594 13.2188203,14.3171719 C13.3486875,14.2480547 13.4545078,14.1579844 13.5364219,14.0468906 C13.618125,13.9358672 13.6788047,13.8090234 13.7187422,13.6664297 C13.7584688,13.5239063 13.7785781,13.3793438 13.7785781,13.2325313 C13.7785781,13.0814297 13.7574844,12.9358125 13.7156484,12.7953281 Z" id="Path" fill="#0064B0"></path>
            <path d="M31.0389609,0 L0.0391640625,0 L0.0391640625,32.9999063 L3.03897656,32.9999063 L3.03897656,36 L4.53895313,35.0000156 L6.03892969,36 L6.03892969,32.9999766 L31.0389609,32.9999766 L31.0389609,0 Z M19.5947578,11.0062969 L19.5948281,11.0062969 L23.3928281,11.0062969 L23.3928281,12.0751875 L22.1100469,12.0751875 L22.1100469,15.4707891 L20.8838672,15.4707891 L20.8838672,12.0751875 L19.5947578,12.0751875 L19.5947578,11.0062969 L19.5947578,11.0062969 Z M15.6395391,11.0062969 L15.6396094,11.0062969 L17.6895,11.0062969 C17.9073984,11.0062969 18.1086328,11.0513672 18.2931328,11.1415078 C18.4776328,11.2317187 18.6359062,11.349 18.7679531,11.4936328 C18.8999297,11.6382656 19.0036406,11.8040625 19.0791562,11.9904609 C19.1546719,12.1770703 19.1923594,12.3645234 19.1923594,12.5532422 C19.1923594,12.8132578 19.1358281,13.0553437 19.022625,13.2795703 C18.9094219,13.5038672 18.7522031,13.6872422 18.5508984,13.8297656 L19.4942109,15.4709297 L18.1108125,15.4709297 L17.3247187,14.1000469 L16.8657187,14.1000469 L16.8657187,15.4708594 L15.6395391,15.4708594 L15.6395391,11.0062969 L15.6395391,11.0062969 Z M9.78553125,17.5855078 L7.94946094,17.5855078 L7.94946094,18.3275156 L9.4460625,18.3275156 L9.4460625,19.3211016 L7.94946094,19.3211016 L7.94946094,20.9811797 L6.72328125,20.9811797 L6.72328125,16.5165469 L9.78560156,16.5165469 L9.78560156,17.5855078 L9.78553125,17.5855078 Z M9.74467969,13.6254375 C9.61678125,13.7700703 9.4618125,13.8854531 9.27935156,13.9712344 C9.09703125,14.0571563 8.89685156,14.1001172 8.67888281,14.1001172 L7.94946094,14.1001172 L7.94946094,15.4709297 L6.72328125,15.4709297 L6.72328125,11.0062969 L8.64738281,11.0062969 C8.86535156,11.0062969 9.06651563,11.0513672 9.25108594,11.1415078 C9.43551563,11.2317187 9.59378906,11.349 9.72576563,11.4936328 C9.85774219,11.6382656 9.96159375,11.8040625 10.0369688,11.9904609 C10.1124844,12.1770703 10.1501719,12.3645234 10.1501719,12.5532422 C10.1501719,12.7503281 10.1145938,12.9421406 10.0433672,13.1286094 C9.97192969,13.3150781 9.8724375,13.4807344 9.74467969,13.6254375 Z M14.4197578,19.6133203 C14.3065547,19.8837422 14.1493359,20.1227344 13.9481719,20.3302266 C13.7470078,20.5377188 13.5069609,20.7042891 13.2281719,20.8301484 C12.9493828,20.9558672 12.6443672,21.0187266 12.3134063,21.0187266 C11.9737969,21.0187266 11.6656172,20.9538281 11.3890078,20.8238203 C11.1123281,20.6939531 10.875375,20.5230938 10.6785,20.3113125 C10.4814141,20.0997422 10.3284141,19.8575859 10.2195,19.5849844 C10.110375,19.3125938 10.0560234,19.0316953 10.0560234,18.7423594 C10.0560234,18.4489453 10.1125547,18.1659375 10.2257578,17.8935469 C10.3389609,17.6212266 10.4971641,17.38125 10.7005781,17.1736172 C10.9037813,16.966125 11.1448125,16.8006094 11.4236016,16.6767891 C11.7023906,16.5531797 12.0074063,16.4913047 12.3385078,16.4913047 C12.6781172,16.4913047 12.9862266,16.5562734 13.2628359,16.6862109 C13.5396563,16.8162188 13.7763281,16.9879922 13.9734141,17.2018125 C14.1704297,17.4156328 14.3223047,17.6587031 14.4293203,17.9312344 C14.536125,18.2037656 14.5897031,18.4825547 14.5897031,18.7675313 C14.5895625,19.0610859 14.5329609,19.3428984 14.4197578,19.6133203 Z M14.8535859,14.1030703 C14.7403828,14.3734922 14.5831641,14.6124844 14.382,14.8199766 C14.1807656,15.0274688 13.9407891,15.1940391 13.662,15.3198984 C13.3832109,15.4456172 13.0781953,15.5084766 12.7470938,15.5084766 C12.407625,15.5084766 12.099375,15.4435078 11.8226953,15.3135703 C11.5460156,15.1836328 11.3090625,15.0128438 11.1121875,14.8010625 C10.9151016,14.5894922 10.7621016,14.3473359 10.6531875,14.0747344 C10.5440625,13.8023438 10.4897109,13.5214453 10.4897109,13.2321094 C10.4897813,12.9388359 10.5463125,12.6558281 10.6595156,12.3832969 C10.7727188,12.1107656 10.9309219,11.8707891 11.1343359,11.6632969 C11.3375391,11.4558047 11.5785703,11.2902891 11.8573594,11.1664687 C12.1361484,11.0428594 12.4411641,10.9810547 12.7722656,10.9810547 C13.1117344,10.9810547 13.4199844,11.0460234 13.6965937,11.1759609 C13.9734141,11.3059687 14.2100859,11.4777422 14.4071719,11.6915625 C14.6041875,11.9053828 14.7560625,12.1484531 14.8630781,12.4209844 C14.9698828,12.6935859 15.0234609,12.9723047 15.0234609,13.2572812 C15.0233906,13.5509062 14.9667891,13.8327187 14.8535859,14.1030703 Z M18.45675,20.9811094 L15.2058516,20.9811094 L15.2058516,16.5166172 L15.2058516,16.5166172 L16.4320313,16.5166172 L16.4320313,19.9122188 L18.45675,19.9122188 L18.45675,20.9811094 Z M20.2048594,20.9811094 L18.9786797,20.9811094 L18.9786797,16.5166172 L20.2048594,16.5166172 L20.2048594,20.9811094 Z M25.1848828,19.6133906 C25.0716797,19.8838125 24.9144609,20.1228047 24.7132969,20.3302969 C24.5121328,20.5377891 24.2720859,20.7043594 23.9932969,20.8302188 C23.7145078,20.9559375 23.4094922,21.0187969 23.0785313,21.0187969 C22.7390625,21.0187969 22.4308125,20.9538984 22.1541328,20.8238906 C21.8774531,20.6940234 21.6405,20.5231641 21.443625,20.3113828 C21.2465391,20.0998125 21.0935391,19.8576563 20.984625,19.5850547 C20.8755,19.3126641 20.8211484,19.0317656 20.8211484,18.7424297 C20.8211484,18.4490156 20.8776797,18.1660078 20.9908828,17.8936172 C21.1040859,17.6210859 21.2622891,17.3811094 21.4657031,17.1736172 C21.6689062,16.966125 21.9099375,16.8006094 22.1887266,16.6767891 C22.4675156,16.5531797 22.7725313,16.4913047 23.1036328,16.4913047 C23.4432422,16.4913047 23.7513516,16.5562734 24.0279609,16.6862109 C24.3047813,16.8162891 24.5414531,16.9881328 24.7386797,17.2018828 C24.9356953,17.4157031 25.0875703,17.6587734 25.1945859,17.9313047 C25.3013906,18.2038359 25.3548984,18.482625 25.3548984,18.7676016 C25.3546875,19.0612266 25.2980859,19.3429687 25.1848828,19.6133906 Z" id="Shape" fill="#0064B0"></path>
            <path d="M8.79208594,12.175875 C8.71657031,12.1087969 8.64119531,12.0751875 8.56567969,12.0751875 L7.94946094,12.0751875 L7.94946094,13.0310859 L8.59717969,13.0310859 C8.67255469,13.0310859 8.74265625,12.9964922 8.80776563,12.9273047 C8.87266406,12.8581875 8.90528906,12.7333828 8.90528906,12.5532422 C8.90528906,12.3688125 8.86753125,12.2430234 8.79208594,12.175875 Z" id="Path" fill="#0072B1"></path>
            <path d="M13.2818906,18.3055781 C13.2399141,18.1651641 13.176,18.0414844 13.0900781,17.9346094 C13.0040859,17.8277344 12.8972109,17.7418125 12.7693828,17.6767734 C12.6414844,17.611875 12.4917187,17.57925 12.3198047,17.57925 C12.1436719,17.57925 11.9917969,17.6128594 11.8638984,17.6798672 C11.736,17.7469453 11.6301094,17.8361719 11.5462969,17.9471953 C11.4624141,18.0582891 11.4006094,18.1840781 11.3608125,18.3244219 C11.320875,18.4649062 11.3009766,18.6085547 11.3009766,18.7552266 C11.3009766,18.9061172 11.3218594,19.0518047 11.3639062,19.1922187 C11.4056719,19.3327031 11.4686016,19.4572969 11.5524844,19.5663516 C11.6363672,19.6754766 11.7421172,19.7634375 11.8700859,19.8305859 C11.9979141,19.8976641 12.1498594,19.9312031 12.3259922,19.9312031 C12.502125,19.9312031 12.6550547,19.8966094 12.7850625,19.8274219 C12.9149297,19.7583047 13.02075,19.6682344 13.1026641,19.5571406 C13.1843672,19.4461172 13.2450469,19.3192734 13.2849844,19.1766094 C13.3247109,19.0340859 13.34475,18.8895234 13.34475,18.7427109 C13.34475,18.5916797 13.3236563,18.4461328 13.2818906,18.3055781 Z" id="Path" fill="#0064B0"></path>
        </g>
    </g>
</svg>